# xmcd
# Track frame offsets:
# 182
# 24922
# 39440
# 64830
# 90280
# 110260
# 132655
# 151337
# 173067
# 189190
# 207122
# 224120
# 248322
# 266612
#
# Disc length: 3871 seconds
# Revision: 0
# Processed by: cddbd v1.5PL3 Copyright (c) Steve Scherf et al.
# Submitted via: VisiTrax 2.9.9.202 - For more info visit www.synapsa.com
#
DISCID=b40f1d0e
DTITLE=TheChi-Lites - The Heart and Soul of The Chi-Lites
DYEAR=1990
DGENRE=Blues
TTITLE0=Have You Seen Her
TTITLE1=Vanishing Love
TTITLE2=My Firs Mistake
TTITLE3=If I Had A Girl
TTITLE4=Heavenly Body
TTITLE5=Me And You
TTITLE6=All I Wanna Do Is Make Love To You
TTITLE7=Oh Girl
TTITLE8=Happy Being Lonely
TTITLE9=Hot On A Thing (Called Love)
TTITLE10=Whole Lot Of Good Good Lovin'
TTITLE11=Never Speak To a Stranger
TTITLE12=Tell Me Where It Hurts
TTITLE13=Love Shock
EXTD=1993/12/29 - 29/12/1993 - Americanas - CR$ 1.390,00 - valordo dolar:CR
EXTD=$ 319,00 - valor em dolares:US$ 4,36 - upload by MSF - Brazil - 25/02/
EXTD=2004 - Castle Inc. - made in France
EXTT0=
EXTT1=
EXTT2=
EXTT3=
EXTT4=
EXTT5=
EXTT6=
EXTT7=
EXTT8=
EXTT9=
EXTT10=
EXTT11=
EXTT12=
EXTT13=
PLAYORDER=
